<?xml version="1.0" encoding="utf-8"?>
<!-- Generator: Adobe Illustrator 27.9.0, SVG Export Plug-In . SVG Version: 6.00 Build 0)  -->
<svg version="1.1" id="Calque_1" xmlns="http://www.w3.org/2000/svg" xmlns:xlink="http://www.w3.org/1999/xlink" x="0px" y="0px"
	 viewBox="0 0 360 59.74" style="enable-background:new 0 0 360 59.74;" xml:space="preserve">
<g>
	<g>
		<path d="M168.57,31.61c-2.22,12.44-3.92,18.11-17.8,18.11c-10.01,0-13.03-4.02-13.03-9.95c0-2.44,0.26-5.24,0.8-8.16
			c2.22-12.45,3.86-18.01,17.74-18.01c9.91,0,13.03,4.08,13.03,9.75C169.32,26.36,169.05,28.85,168.57,31.61z M155.49,20.59
			c-6.2,0-7.52,1.9-9.17,11.07c-0.47,2.75-0.79,4.87-0.79,6.46c0,3.66,1.69,4.61,6.04,4.61c6.2,0,7.58-1.9,9.22-11.07
			c0.48-2.81,0.74-4.93,0.74-6.51C161.53,21.49,159.78,20.59,155.49,20.59z"/>
		<path d="M196.72,49.25h-6.96l0.41-2.36c-1.48,1.29-3.24,2.82-8.32,2.82c-5.67,0-9.91-2.24-9.91-8.43c0-2.01,0.65-5.2,0.83-6.08
			l2.66-14.99h8.32l-2.48,14.16c-0.36,2.07-0.71,3.72-0.71,5.02c0,1.94,1,2.95,3.72,2.95c5.96,0,6.19-4.72,7.08-9.73l2.19-12.4h8.32
			L196.72,49.25z"/>
		<path d="M230.08,29.89h-7.73c0.06-0.24,0.06-0.48,0.06-0.71c0-1.3-0.59-2.07-2.66-2.07c-5.02,0-5.55,3.42-6.43,8.38l-2.42,13.75
			h-8.32l5.14-29.04h6.96l-0.41,2.36c0.94-0.77,2.89-2.83,7.97-2.83c5.31,0,8.15,2.71,8.15,7.14
			C230.38,28.35,230.2,29.24,230.08,29.89z"/>
		<path d="M258.3,31.84l-3.01,17.41h-7.14l0.41-2.36c-2.12,1.59-5.02,2.82-9.15,2.82c-5.84,0-9.85-2.48-9.85-8.2
			c0-3.24,1.06-5.67,2.72-7.32c3.3-3.3,9.09-3.37,13.4-3.37h4.96c0.18-0.77,0.29-1.47,0.29-2.18c0-1.71-0.71-2.66-4.96-2.66
			c-1.95,0-4.84,0.29-5.25,2.48h-8.03c1.3-7.2,7.08-8.73,14.28-8.73c7.09,0,11.81,2.36,11.81,8.02
			C258.77,29.01,258.48,30.48,258.3,31.84z M244.26,36.92c-2.95,0-6.43,0.06-6.43,3.78c0,1.47,1,2.66,4.19,2.66
			c6.2,0,6.96-3.37,7.49-6.43H244.26z"/>
		<path d="M290.06,34.26l-2.59,14.99h-8.33l2.49-14.16c0.36-1.89,0.59-3.48,0.65-4.72c0.06-2.12-0.77-3.24-3.66-3.24
			c-5.96,0-6.2,4.78-7.09,9.73l-2.18,12.4h-8.32l5.13-29.04h6.96l-0.42,2.36c1.48-1.3,3.31-2.83,8.44-2.83
			c3.95,0,6.2,0.82,7.79,2.42c1.53,1.53,1.95,3.78,1.95,5.78C290.89,30.13,290.36,32.55,290.06,34.26z"/>
		<path d="M318.35,46.59c-3.07,2.48-6.79,3.12-11.51,3.12c-4.66,0-8.2-0.7-10.44-3.18c-1.48-1.65-2.13-3.84-2.13-6.61
			c0-5.08,1.48-13.87,5.43-17.06c3.07-2.48,6.84-3.12,11.56-3.12c4.66,0,8.15,0.71,10.39,3.19c1.42,1.59,2.19,3.83,2.19,6.54
			C323.84,34.61,322.36,43.4,318.35,46.59z M310.38,27c-2.3,0-3.78,0.48-4.84,1.48c-1.83,1.77-2.83,7.55-2.83,10.21
			c0,2.78,1.3,3.78,5.02,3.78c2.24,0,3.71-0.41,4.78-1.36c1.94-1.77,2.89-7.43,2.89-10.15C315.39,28.06,314.16,27,310.38,27z"/>
		<path d="M354.12,29.3h-7.67c0.06-0.29,0.06-0.52,0.06-0.77c0-2.24-2.42-2.53-4.43-2.53c-2,0-5.25,0.18-5.25,3.37
			c0,2.12,2.3,2.07,5.67,2.36c5.67,0.48,10.09,1,10.09,6.61c0,2.9-0.82,6.32-2.89,8.38c-2.42,2.36-6.2,3-11.22,3
			c-6.01,0-12.03-1.18-12.03-7.31c0-0.94,0.11-1.6,0.23-2.24h7.61c-0.06,0.23-0.06,0.41-0.06,0.59c0,2.36,2.53,2.71,4.72,2.71
			c2.36,0,5.13-0.41,5.13-3.24c0-2-2.3-1.94-4.9-2.12c-5.96-0.48-10.74-1-10.74-6.79c0-3.13,0.77-6.2,2.95-8.38
			c2.48-2.48,6.55-3.19,10.98-3.19c5.9,0,11.92,1.48,11.92,7.61C354.3,28.06,354.18,28.94,354.12,29.3z"/>
	</g>
	<g>
		<g>
			<path d="M64.83,50.1c12.83-0.16,22.46-1.1,32.29-3.83c12.19-2.95,19.86-8.48,18.34-14.24c-1.83-6.93-17.97-12.5-34.09-11.58
				c-13.65,0.79-23.55,4.74-24.02,9.88l-2.09-1.12c-8.4-5.18,7.53-13.12,29.05-13.29c22.75-0.18,41.58,7.38,40.89,17.49
				c-0.65,9.48-15.12,18.49-35.39,21.6c21.5-2.79,38.09-12.16,37.65-22.13C126.95,21.48,107.9,14.8,84,13.52l-10.9,0.07
				c-19.36,1.27-34.87,7.55-34.75,15.38c0.12,7.82,15.85,13.27,35.13,13.41c15.42,0.11,28.86-4.38,32.49-10.41
				c0,0,2.34,1.58,2.31,3.01c-0.1,4.7-10.23,9.21-22.92,11.53C78.26,47.81,71.4,48,71.4,48c-32.82,0.94-59.72-8.38-60-19.92
				C11.12,17.18,37.5,7.38,67.85,6.05l-1.13-0.07C33.81,6.36,4.57,17.01,4.88,29.07C5.18,41.11,32.04,50.51,64.83,50.1"/>
			<path d="M64.83,50.1c12.83-0.16,22.46-1.1,32.29-3.83c12.19-2.95,19.86-8.48,18.34-14.24c-1.83-6.93-17.97-12.5-34.09-11.58
				c-13.65,0.79-23.55,4.74-24.02,9.88l-2.09-1.12c-8.4-5.18,7.53-13.12,29.05-13.29c22.75-0.18,41.58,7.38,40.89,17.49
				c-0.65,9.48-15.12,18.49-35.39,21.6c21.5-2.79,38.09-12.16,37.65-22.13C126.95,21.48,107.9,14.8,84,13.52l-10.9,0.07
				c-19.36,1.27-34.87,7.55-34.75,15.38c0.12,7.82,15.85,13.27,35.13,13.41c15.42,0.11,28.86-4.38,32.49-10.41
				c0,0,2.34,1.58,2.31,3.01c-0.1,4.7-10.23,9.21-22.92,11.53C78.26,47.81,71.4,48,71.4,48c-32.82,0.94-59.72-8.38-60-19.92
				C11.12,17.18,37.5,7.38,67.85,6.05l-1.13-0.07C33.81,6.36,4.57,17.01,4.88,29.07C5.18,41.11,32.04,50.51,64.83,50.1z"/>
		</g>
	</g>
</g>
</svg>
